<svg width="28" height="28" viewBox="0 0 28 28" fill="none" xmlns="http://www.w3.org/2000/svg">
<g clip-path="url(#clip0_0_2984)">
<circle cx="14" cy="14" r="14" fill="#00A52C"/>
<path fill-rule="evenodd" clip-rule="evenodd" d="M14 46.375C21.732 46.375 28 40.107 28 32.375C28 24.643 21.732 18.375 14 18.375C6.26801 18.375 0 24.643 0 32.375C0 40.107 6.26801 46.375 14 46.375ZM14 48.125C22.6985 48.125 29.75 41.0735 29.75 32.375C29.75 23.6765 22.6985 16.625 14 16.625C5.30151 16.625 -1.75 23.6765 -1.75 32.375C-1.75 41.0735 5.30151 48.125 14 48.125Z" fill="white" fill-opacity="0.5"/>
<path fill-rule="evenodd" clip-rule="evenodd" d="M14 16.625C16.4162 16.625 18.375 14.6662 18.375 12.25C18.375 9.83375 16.4162 7.875 14 7.875C11.5838 7.875 9.625 9.83375 9.625 12.25C9.625 14.6662 11.5838 16.625 14 16.625ZM14 18.375C17.3827 18.375 20.125 15.6327 20.125 12.25C20.125 8.86726 17.3827 6.125 14 6.125C10.6173 6.125 7.875 8.86726 7.875 12.25C7.875 15.6327 10.6173 18.375 14 18.375Z" fill="white"/>
</g>
<defs>
<clipPath id="clip0_0_2984">
<rect width="28" height="28" rx="14" fill="white"/>
</clipPath>
</defs>
</svg>
